<svg width="34" height="30" viewBox="0 0 34 30" fill="none" xmlns="http://www.w3.org/2000/svg">
<path d="M6.19336 4.83984V14.2734H11.5254C14.6426 14.2734 16.4678 12.4893 16.4678 9.55664C16.4678 6.68555 14.54 4.83984 11.4639 4.83984H6.19336ZM6.19336 18.7646V29.5928H0V0H12.1201C18.9287 0 22.8252 3.58887 22.8252 9.43359C22.8252 13.2275 20.8564 16.5088 17.4521 17.8418L23.6865 29.5928H16.6729L11.1562 18.7646H6.19336ZM30.29 29.8389C28.4443 29.8389 26.9883 28.3623 26.9883 26.5371C26.9883 24.6914 28.4443 23.2354 30.29 23.2354C32.1152 23.2354 33.5918 24.6914 33.5918 26.5371C33.5918 28.3623 32.1152 29.8389 30.29 29.8389Z" fill="white"/>
</svg>
